<svg width="1200" height="320" viewBox="0 0 1200 320" fill="none" xmlns="http://www.w3.org/2000/svg">
  <defs>
    <linearGradient id="bg" x1="0" y1="0" x2="1200" y2="320" gradientUnits="userSpaceOnUse">
      <stop stop-color="#0D1117"/>
      <stop offset="0.55" stop-color="#111820"/>
      <stop offset="1" stop-color="#0D1117"/>
    </linearGradient>
    <linearGradient id="line" x1="180" y1="82" x2="1015" y2="245" gradientUnits="userSpaceOnUse">
      <stop stop-color="#B31B1B"/>
      <stop offset="0.55" stop-color="#FF6B6B"/>
      <stop offset="1" stop-color="#58A6FF"/>
    </linearGradient>
    <pattern id="grid" width="36" height="36" patternUnits="userSpaceOnUse">
      <path d="M 36 0 L 0 0 0 36" fill="none" stroke="#FFFFFF" stroke-opacity="0.035" stroke-width="1"/>
    </pattern>
    <filter id="glow" x="-40%" y="-40%" width="180%" height="180%">
      <feGaussianBlur stdDeviation="8" result="blur"/>
      <feMerge><feMergeNode in="blur"/><feMergeNode in="SourceGraphic"/></feMerge>
    </filter>
  </defs>

  <rect width="1200" height="320" rx="22" fill="url(#bg)"/>
  <rect width="1200" height="320" rx="22" fill="url(#grid)"/>
  <rect x="1" y="1" width="1198" height="318" rx="21" stroke="#30363D" stroke-width="2"/>

  <circle cx="44" cy="38" r="6" fill="#FF5F56"/>
  <circle cx="66" cy="38" r="6" fill="#FFBD2E"/>
  <circle cx="88" cy="38" r="6" fill="#27C93F"/>
  <text x="110" y="44" fill="#7D8590" font-family="ui-monospace, SFMono-Regular, Menlo, Monaco, Consolas, monospace" font-size="16">rayhan@github ~ /profile</text>

  <path d="M173 240 C320 202 408 246 532 197 C651 150 727 168 838 122 C904 95 963 93 1027 82" stroke="url(#line)" stroke-width="2.5" stroke-linecap="round" opacity="0.72"/>
  <circle cx="173" cy="240" r="5" fill="#B31B1B" filter="url(#glow)"/>
  <circle cx="532" cy="197" r="5" fill="#FF6B6B" filter="url(#glow)"/>
  <circle cx="838" cy="122" r="5" fill="#58A6FF" filter="url(#glow)"/>
  <circle cx="1027" cy="82" r="5" fill="#58A6FF" filter="url(#glow)"/>

  <text x="92" y="138" fill="#F0F6FC" font-family="ui-monospace, SFMono-Regular, Menlo, Monaco, Consolas, monospace" font-size="55" font-weight="700" letter-spacing="1.5">RAYHAN RINZAN</text>
  <text x="94" y="180" fill="#8B949E" font-family="ui-monospace, SFMono-Regular, Menlo, Monaco, Consolas, monospace" font-size="20">computer science @ cornell  ·  software  ·  machine learning  ·  data</text>

  <text x="94" y="275" fill="#58A6FF" font-family="ui-monospace, SFMono-Regular, Menlo, Monaco, Consolas, monospace" font-size="17">$ build things worth using _</text>
</svg>